<svg width="490" height="404" viewBox="0 0 490 404" fill="none" xmlns="http://www.w3.org/2000/svg">
<path d="M319.379 397.974L6.34261 6.67826C4.57108 4.46384 1 5.71651 1 8.55235V198.272C1 198.953 1.23152 199.614 1.65653 200.145L162.766 401.721C163.335 402.434 164.198 402.848 165.109 402.848H317.037C319.552 402.848 320.951 399.938 319.379 397.974Z" fill="black" stroke="black"/>
<path d="M489 193.671V8.52373C489 5.69105 485.436 4.4365 483.661 6.64474L279.086 261.268C277.509 263.231 278.906 266.147 281.425 266.147H429.156C430.056 266.147 430.908 265.743 431.478 265.047L488.322 195.571C488.76 195.035 489 194.363 489 193.671Z" fill="black" stroke="black"/>
</svg>
