<svg width="349" height="32" viewBox="0 0 349 32" fill="none" xmlns="http://www.w3.org/2000/svg">
<path d="M3.51562 30.5469C3.25521 30.5469 2.85156 30.5078 2.30469 30.4297C1.88802 29.987 1.51042 29.388 1.17188 28.6328C0.859375 27.8516 0.611979 27.0312 0.429688 26.1719C0.273438 25.2865 0.195312 24.4141 0.195312 23.5547C0.221354 22.6693 0.377604 21.888 0.664062 21.2109C0.664062 21.1849 0.78125 20.8724 1.01562 20.2734C1.27604 19.6745 1.60156 18.9193 1.99219 18.0078C2.38281 17.0703 2.82552 16.0417 3.32031 14.9219C3.8151 13.776 4.3099 12.6562 4.80469 11.5625C5.29948 10.4688 5.76823 9.47917 6.21094 8.59375C6.67969 7.68229 7.08333 6.97917 7.42188 6.48438C7.65625 6.11979 7.86458 5.76823 8.04688 5.42969C8.25521 5.09115 8.45052 4.77865 8.63281 4.49219C8.91927 4.02344 9.17969 3.59375 9.41406 3.20312C9.67448 2.78646 9.94792 2.42188 10.2344 2.10938C10.5469 1.77083 10.8854 1.48438 11.25 1.25C11.6146 0.989583 12.0573 0.768229 12.5781 0.585938C12.8906 0.716146 13.1641 0.859375 13.3984 1.01562C13.6328 1.14583 13.8411 1.3151 14.0234 1.52344L14.1406 2.07031C14.1927 2.2526 14.2708 2.38281 14.375 2.46094C14.5052 2.51302 14.6094 2.53906 14.6875 2.53906C15.026 2.61719 15.3125 2.70833 15.5469 2.8125C15.8073 2.89062 16.0807 2.94271 16.3672 2.96875C16.4714 3.125 16.5625 3.28125 16.6406 3.4375C16.7448 3.59375 16.849 3.73698 16.9531 3.86719C17.474 4.6224 17.9036 5.35156 18.2422 6.05469C18.5807 6.75781 18.5807 7.52604 18.2422 8.35938L18.2812 8.78906C18.4115 8.97135 18.4766 9.14062 18.4766 9.29688C18.4766 9.45312 18.4505 9.67448 18.3984 9.96094C18.3724 10.1693 18.3464 10.4036 18.3203 10.6641C18.3203 10.8984 18.3594 11.1589 18.4375 11.4453L18.7109 11.7578C19.1276 11.9661 19.5312 12.0703 19.9219 12.0703C20.4427 12.0703 20.9115 11.9531 21.3281 11.7188C21.7448 11.4844 22.1354 11.25 22.5 11.0156C22.7865 10.8073 23.0469 10.638 23.2812 10.5078C23.5417 10.3776 23.7891 10.2865 24.0234 10.2344C24.5703 9.71354 25.0651 9.25781 25.5078 8.86719C25.9766 8.45052 26.4583 8.03385 26.9531 7.61719C27.8906 6.86198 28.8021 6.05469 29.6875 5.19531C30.5729 4.3099 31.276 3.21615 31.7969 1.91406C32.0833 1.73177 32.4089 1.64062 32.7734 1.64062C33.138 1.64062 33.5026 1.71875 33.8672 1.875C34.2318 2.00521 34.5964 2.16146 34.9609 2.34375C35.0391 2.39583 35.1042 2.4349 35.1562 2.46094C35.2344 2.48698 35.3125 2.52604 35.3906 2.57812C35.3906 2.86458 35.5078 3.125 35.7422 3.35938C35.8724 3.46354 35.9635 3.52865 36.0156 3.55469C36.0677 3.58073 36.1198 3.60677 36.1719 3.63281C36.3802 3.76302 36.5495 3.88021 36.6797 3.98438C36.8359 4.08854 36.9531 4.23177 37.0312 4.41406C37.2656 5.11719 37.6562 5.66406 38.2031 6.05469C38.151 6.34115 38.1641 6.6276 38.2422 6.91406C38.3203 7.17448 38.4115 7.4349 38.5156 7.69531C38.5677 7.79948 38.6068 7.90365 38.6328 8.00781C38.6589 8.08594 38.6979 8.1901 38.75 8.32031L37.8906 8.24219L38.0078 9.10156C38.0859 9.54427 38.0469 10.0391 37.8906 10.5859C37.7604 11.1328 37.6042 11.5625 37.4219 11.875C37.474 12.6562 37.5 13.2812 37.5 13.75C37.5 14.1927 37.474 14.6094 37.4219 15C37.3698 15.3906 37.2786 15.7682 37.1484 16.1328C37.0443 16.4714 36.901 16.8359 36.7188 17.2266C36.8229 19.2057 36.5885 21.0156 36.0156 22.6562C35.4688 24.2969 34.8698 25.8333 34.2188 27.2656C34.1406 27.4479 34.0625 27.6172 33.9844 27.7734C33.9062 27.9297 33.8411 28.0859 33.7891 28.2422C33.5026 28.3203 33.2422 28.4115 33.0078 28.5156C32.7734 28.6198 32.5521 28.737 32.3438 28.8672C32.0573 29.0495 31.7708 29.2057 31.4844 29.3359C31.1979 29.4401 30.8984 29.4922 30.5859 29.4922C29.3359 28.5807 28.6849 27.0052 28.6328 24.7656C28.6068 22.526 29.0885 19.6745 30.0781 16.2109C30.2604 16.0807 30.3385 15.8854 30.3125 15.625V15.1953L29.9219 15.1562C29.7917 15.1562 29.6745 15.1693 29.5703 15.1953C29.4661 15.2214 29.388 15.3385 29.3359 15.5469C28.5026 16.1458 27.5911 16.7708 26.6016 17.4219C25.638 18.0469 24.6354 18.6328 23.5938 19.1797C22.5521 19.7005 21.4844 20.1432 20.3906 20.5078C19.3229 20.8464 18.2812 21.0156 17.2656 21.0156C14.6615 21.0156 12.6953 19.6875 11.3672 17.0312L11.0156 16.3281L10.625 16.9531C10.5469 17.0833 10.4036 17.3438 10.1953 17.7344C10.013 18.099 9.81771 18.5286 9.60938 19.0234C9.42708 19.5182 9.25781 20.026 9.10156 20.5469C8.97135 21.0677 8.93229 21.5234 8.98438 21.9141C8.67188 22.2005 8.35938 22.526 8.04688 22.8906C7.76042 23.2552 7.55208 23.6719 7.42188 24.1406C7.36979 24.2708 7.35677 24.401 7.38281 24.5312C7.40885 24.6354 7.44792 24.7526 7.5 24.8828C7.47396 25.0651 7.42188 25.1953 7.34375 25.2734C7.26562 25.3516 7.17448 25.4297 7.07031 25.5078C6.9401 25.638 6.8099 25.7812 6.67969 25.9375C6.54948 26.0677 6.43229 26.224 6.32812 26.4062C6.27604 26.5625 6.23698 26.7318 6.21094 26.9141C6.1849 27.0703 6.15885 27.2135 6.13281 27.3438C6.13281 27.6302 6.09375 27.8255 6.01562 27.9297C5.75521 28.4766 5.52083 28.9323 5.3125 29.2969C5.13021 29.6354 4.94792 29.8958 4.76562 30.0781C4.58333 30.2604 4.38802 30.3776 4.17969 30.4297C3.9974 30.5078 3.77604 30.5469 3.51562 30.5469ZM59.6094 26.7188C59.4531 27.1615 59.2188 27.6172 58.9062 28.0859C58.6198 28.5286 58.2682 28.9323 57.8516 29.2969C57.4609 29.6354 57.0182 29.9219 56.5234 30.1562C56.0286 30.3906 55.5078 30.5208 54.9609 30.5469C54.6224 30.4688 54.388 30.3776 54.2578 30.2734C54.1536 30.1953 54.0365 30.1172 53.9062 30.0391C53.8281 29.987 53.75 29.9479 53.6719 29.9219C53.6198 29.8698 53.5677 29.8307 53.5156 29.8047L53.0469 29.6094L53.2031 29.1016C53.2552 28.8932 53.2422 28.737 53.1641 28.6328C53.0859 28.5026 52.9297 28.3333 52.6953 28.125C52.6172 28.0469 52.5391 27.9688 52.4609 27.8906C52.3828 27.8125 52.3177 27.7344 52.2656 27.6562L51.6016 26.9141L52.6562 26.6406C53.3073 26.4583 53.737 26.224 53.9453 25.9375C54.1797 25.651 54.2708 25.1693 54.2188 24.4922C53.6979 24.388 53.2552 24.375 52.8906 24.4531C52.5521 24.5312 52.2005 24.6224 51.8359 24.7266C51.3672 24.8568 50.8854 24.974 50.3906 25.0781C49.9219 25.1562 49.401 25.1953 48.8281 25.1953C48.6198 25.1953 48.4245 25.1953 48.2422 25.1953C48.0599 25.1693 47.8646 25.1432 47.6562 25.1172L47.2656 25.0391C47.2135 24.7526 47.1615 24.5964 47.1094 24.5703C47.0573 24.5182 47.0052 24.4661 46.9531 24.4141C46.8229 24.2839 46.6797 24.1146 46.5234 23.9062C46.3932 23.6719 46.3672 23.3854 46.4453 23.0469C46.3151 22.8125 46.237 22.5781 46.2109 22.3438C46.0547 22.6562 45.9375 22.9818 45.8594 23.3203L45.7031 23.7109L45.3125 23.7891C45.2604 23.8151 45.2214 23.8802 45.1953 23.9844C45.1693 24.0625 45.1562 24.1276 45.1562 24.1797L44.9609 24.8438C44.9089 24.8958 44.8568 24.9479 44.8047 25C44.7526 25.026 44.7005 25.0651 44.6484 25.1172C44.5964 25.3516 44.5312 25.5859 44.4531 25.8203C44.375 26.0547 44.2969 26.276 44.2188 26.4844C44.0885 26.8229 43.9714 27.1615 43.8672 27.5C43.7891 27.8125 43.763 28.125 43.7891 28.4375L43.6328 28.8672C43.5026 29.0234 43.3594 29.1536 43.2031 29.2578C43.0469 29.3359 42.8906 29.4141 42.7344 29.4922C42.6823 29.5443 42.6042 29.5964 42.5 29.6484C42.4219 29.6745 42.3568 29.7005 42.3047 29.7266L42.1875 30.1562L41.7188 30.2344C41.4323 30.2865 41.224 30.3255 41.0938 30.3516C40.9896 30.3776 40.8594 30.3906 40.7031 30.3906L40.3125 30.3516C40.026 30.1172 39.8047 29.9349 39.6484 29.8047C39.4922 29.6484 39.3099 29.5052 39.1016 29.375C38.8672 29.0625 38.737 28.8281 38.7109 28.6719C38.6849 28.5156 38.6589 28.3724 38.6328 28.2422C38.5807 28.0859 38.5547 27.9557 38.5547 27.8516C38.5286 27.7474 38.4896 27.6693 38.4375 27.6172L37.9297 27.1484L38.3594 26.7969L38.3984 26.1328C38.9193 24.8047 39.4661 23.5286 40.0391 22.3047C40.638 21.0807 41.25 19.8307 41.875 18.5547C42.0833 18.138 42.2786 17.7214 42.4609 17.3047C42.6693 16.888 42.8776 16.4714 43.0859 16.0547C43.0599 15.9766 43.0469 15.8854 43.0469 15.7812C43.0469 15.6771 43.0729 15.5599 43.125 15.4297C43.4115 14.987 43.6458 14.5964 43.8281 14.2578C44.0104 13.8932 44.1927 13.5286 44.375 13.1641C44.5833 12.7214 44.7917 12.2917 45 11.875C45.2344 11.4583 45.5208 11.0286 45.8594 10.5859L46.4844 10.3125C46.5625 10.2865 46.6536 10.2604 46.7578 10.2344C46.862 10.1823 46.9792 10.1562 47.1094 10.1562L47.6953 10.2344C48.4245 9.89583 49.0625 9.42708 49.6094 8.82812C50.1562 8.20312 50.7161 7.46094 51.2891 6.60156L51.6797 6.05469L52.1875 6.36719C52.3177 6.44531 52.5 6.52344 52.7344 6.60156C52.9688 6.65365 53.2161 6.71875 53.4766 6.79688C53.9453 6.90104 54.388 7.01823 54.8047 7.14844C55.2214 7.27865 55.5599 7.47396 55.8203 7.73438C55.9766 8.15104 56.0677 8.46354 56.0938 8.67188C56.1198 8.88021 56.1589 9.08854 56.2109 9.29688C56.2891 9.73958 56.3542 10.1823 56.4062 10.625C56.4844 11.0677 56.5365 11.5625 56.5625 12.1094C56.6927 12.5521 56.7969 12.9948 56.875 13.4375C56.9792 13.8542 57.0703 14.2839 57.1484 14.7266C57.2786 15.3516 57.4089 15.9635 57.5391 16.5625C57.6693 17.1354 57.8385 17.6823 58.0469 18.2031C58.2552 18.2031 58.3854 18.2161 58.4375 18.2422C58.5677 18.1901 58.6979 18.151 58.8281 18.125C58.9844 18.099 59.1536 18.0729 59.3359 18.0469L59.7656 18.0078L59.9219 18.3984C59.9479 18.5286 60.0781 18.6589 60.3125 18.7891C60.651 18.8151 60.8984 18.8932 61.0547 19.0234C61.2109 19.1276 61.3542 19.2448 61.4844 19.375C61.5885 19.4792 61.6927 19.5573 61.7969 19.6094L62.3828 19.8438L62.0703 20.4297C61.8099 20.8984 61.4323 21.3542 60.9375 21.7969C60.4688 22.2135 59.9349 22.5651 59.3359 22.8516C59.362 23.0078 59.375 23.1641 59.375 23.3203C59.401 23.4505 59.4401 23.5938 59.4922 23.75C59.5703 24.1927 59.6354 24.6484 59.6875 25.1172C59.7396 25.5859 59.7396 26.0677 59.6875 26.5625L59.6094 26.7188ZM48.3203 19.9609C49.1016 19.9089 49.8047 19.8568 50.4297 19.8047C51.0807 19.7266 51.7969 19.6094 52.5781 19.4531C52.3958 18.6719 52.2005 17.8646 51.9922 17.0312C51.7839 16.1719 51.5625 15.3255 51.3281 14.4922L51.0938 14.8828C50.5729 15.4297 50.0651 16.0417 49.5703 16.7188C49.1016 17.3958 48.6979 18.0339 48.3594 18.6328C48.2031 18.8672 48.0469 19.1016 47.8906 19.3359C47.7344 19.5703 47.5911 19.8047 47.4609 20.0391C47.6172 20.013 47.7604 20 47.8906 20C48.0469 20 48.1901 19.987 48.3203 19.9609ZM85.7422 28.5938C84.4922 28.6458 83.3854 28.6198 82.4219 28.5156C81.4844 28.4115 80.5599 28.1641 79.6484 27.7734C79.5964 27.7474 79.5443 27.6823 79.4922 27.5781C79.4401 27.474 79.388 27.3958 79.3359 27.3438C79.1797 27.2656 78.9844 27.2396 78.75 27.2656C78.5417 27.2656 78.3594 27.2396 78.2031 27.1875C77.9948 27.0833 77.6693 26.888 77.2266 26.6016C76.7839 26.2891 76.3802 26.0026 76.0156 25.7422C75.5469 25.3776 75.1042 25.013 74.6875 24.6484C74.2708 24.2839 73.9062 23.8932 73.5938 23.4766C73.5156 23.3724 73.4115 23.3203 73.2812 23.3203C73.151 23.2943 73.0339 23.2552 72.9297 23.2031C72.1745 23.6719 71.5365 24.2578 71.0156 24.9609C70.4948 25.6641 70 26.3802 69.5312 27.1094C69.0625 27.8385 68.5677 28.5286 68.0469 29.1797C67.526 29.8307 66.862 30.3255 66.0547 30.6641C65.8203 30.6641 65.612 30.625 65.4297 30.5469C65.2474 30.4688 65.0781 30.3646 64.9219 30.2344C64.7656 30.1302 64.6094 30.026 64.4531 29.9219C64.2969 29.8177 64.1276 29.7396 63.9453 29.6875C63.9453 29.375 63.8802 29.0885 63.75 28.8281C63.6458 28.5677 63.5286 28.3203 63.3984 28.0859C63.2943 27.8516 63.2161 27.6302 63.1641 27.4219C63.112 27.1875 63.1641 26.9661 63.3203 26.7578C63.1641 26.6016 62.9297 26.4323 62.6172 26.25C62.7734 26.0938 62.8385 25.9505 62.8125 25.8203C62.8125 25.6901 62.7865 25.5599 62.7344 25.4297C62.6823 25.2995 62.6302 25.1562 62.5781 25C62.5521 24.8438 62.5911 24.6875 62.6953 24.5312C62.8255 24.5312 62.9818 24.5052 63.1641 24.4531C63.0078 24.2448 62.9297 24.1276 62.9297 24.1016C62.9557 24.0495 62.9297 23.9844 62.8516 23.9062C62.7995 23.75 62.8255 23.6589 62.9297 23.6328C63.0339 23.5807 63.138 23.5286 63.2422 23.4766C63.3464 22.2005 63.5677 21.0156 63.9062 19.9219C64.2448 18.8281 64.6224 17.7734 65.0391 16.7578C65.4557 15.7422 65.8594 14.7135 66.25 13.6719C66.6667 12.6302 67.0052 11.5104 67.2656 10.3125C67.5521 10.026 67.7734 9.6875 67.9297 9.29688C68.112 8.90625 68.2943 8.51562 68.4766 8.125C68.6849 7.73438 68.9062 7.35677 69.1406 6.99219C69.401 6.60156 69.7526 6.28906 70.1953 6.05469C70.5599 6.08073 70.8854 6.1849 71.1719 6.36719C71.4583 6.52344 71.8099 6.58854 72.2266 6.5625C72.3047 6.69271 72.3698 6.82292 72.4219 6.95312C72.5 7.08333 72.5911 7.21354 72.6953 7.34375L73.2812 7.22656C73.5677 7.46094 73.8151 7.76042 74.0234 8.125C74.2578 8.46354 74.4141 8.82812 74.4922 9.21875C74.5703 9.60938 74.5573 9.98698 74.4531 10.3516C74.349 10.6901 74.1016 10.9635 73.7109 11.1719C73.737 11.3021 73.737 11.4062 73.7109 11.4844C73.7109 11.5365 73.6979 11.5885 73.6719 11.6406C73.6458 11.6927 73.6328 11.7448 73.6328 11.7969C73.6328 11.849 73.6719 11.9271 73.75 12.0312C73.2292 12.4219 72.8385 12.9688 72.5781 13.6719C72.3177 14.375 72.1745 15 72.1484 15.5469C72.4609 15.2344 72.7995 14.9349 73.1641 14.6484C73.5547 14.3359 73.9453 14.0365 74.3359 13.75C74.7526 13.4635 75.1432 13.1901 75.5078 12.9297C75.8984 12.6693 76.25 12.4089 76.5625 12.1484C77.4219 11.3672 78.2422 10.7422 79.0234 10.2734C79.8307 9.77865 80.6771 9.23177 81.5625 8.63281C81.7708 8.58073 81.9271 8.58073 82.0312 8.63281C82.1615 8.65885 82.2917 8.69792 82.4219 8.75C82.4219 8.59375 82.3698 8.5026 82.2656 8.47656C82.1875 8.45052 82.1615 8.34635 82.1875 8.16406C82.5781 8.0599 82.9167 7.94271 83.2031 7.8125C83.4896 7.65625 83.8021 7.51302 84.1406 7.38281C84.375 7.61719 84.5964 7.86458 84.8047 8.125C85.013 8.35938 85.2995 8.5026 85.6641 8.55469C85.7943 8.84115 85.9505 9.0625 86.1328 9.21875C86.3151 9.34896 86.4974 9.47917 86.6797 9.60938C86.862 9.73958 87.0182 9.89583 87.1484 10.0781C87.3047 10.2604 87.3958 10.5469 87.4219 10.9375C87.3177 11.1198 87.2005 11.3151 87.0703 11.5234C86.9661 11.7318 86.862 11.9792 86.7578 12.2656C86.237 12.7344 85.7031 13.151 85.1562 13.5156C84.6354 13.8802 84.1016 14.2318 83.5547 14.5703C83.0078 14.9089 82.4479 15.2474 81.875 15.5859C81.3021 15.9245 80.7161 16.3281 80.1172 16.7969C79.987 16.9792 79.8177 17.1484 79.6094 17.3047C79.4271 17.4349 79.2318 17.5781 79.0234 17.7344C78.8151 17.8646 78.6198 18.0078 78.4375 18.1641C78.2552 18.3203 78.112 18.5026 78.0078 18.7109C77.9297 18.737 77.8516 18.75 77.7734 18.75C77.6953 18.75 77.6172 18.763 77.5391 18.7891C77.4609 18.9714 77.3307 19.1146 77.1484 19.2188C76.9922 19.3229 76.888 19.4661 76.8359 19.6484C77.2266 20.4818 77.7344 21.1198 78.3594 21.5625C78.9844 22.0052 79.6875 22.3307 80.4688 22.5391C81.25 22.7214 82.0964 22.8255 83.0078 22.8516C83.9193 22.8516 84.8698 22.8516 85.8594 22.8516C85.9635 22.8255 86.0026 22.7734 85.9766 22.6953C85.9766 22.5911 86.0417 22.5521 86.1719 22.5781C86.7969 22.7865 87.2786 23.0859 87.6172 23.4766C87.9557 23.8411 88.3594 24.2057 88.8281 24.5703C88.776 25.5599 88.4766 26.3802 87.9297 27.0312C87.3828 27.6823 86.6536 28.2031 85.7422 28.5938ZM109.805 8.00781C109.831 8.1901 109.831 8.33333 109.805 8.4375C109.805 8.51562 109.792 8.59375 109.766 8.67188C109.766 8.75 109.766 8.84115 109.766 8.94531C109.766 9.02344 109.792 9.15365 109.844 9.33594C109.297 10.2214 108.659 10.8333 107.93 11.1719C107.227 11.4844 106.458 11.7188 105.625 11.875C104.792 12.0052 103.932 12.1484 103.047 12.3047C102.188 12.4609 101.328 12.7995 100.469 13.3203C100.13 13.1901 99.8177 13.1901 99.5312 13.3203C99.2708 13.4505 98.8802 13.4896 98.3594 13.4375C98.2031 13.5938 98.0078 13.7109 97.7734 13.7891C97.5391 13.8411 97.3047 13.9062 97.0703 13.9844C97.1745 14.2188 97.2135 14.4661 97.1875 14.7266C97.1875 14.9609 97.2266 15.1562 97.3047 15.3125C98.2161 15.3906 99.2188 15.3776 100.312 15.2734C101.432 15.1693 102.526 15.1042 103.594 15.0781C103.62 15.2083 103.607 15.2995 103.555 15.3516C103.503 15.3776 103.49 15.4427 103.516 15.5469C103.698 15.6771 103.88 15.8464 104.062 16.0547C104.245 16.237 104.427 16.4193 104.609 16.6016C104.792 16.7839 104.974 16.9401 105.156 17.0703C105.365 17.1745 105.599 17.2135 105.859 17.1875C105.964 17.3958 106.029 17.6302 106.055 17.8906C106.107 18.125 106.081 18.3724 105.977 18.6328C105.56 18.9193 105.143 19.2188 104.727 19.5312C104.31 19.8177 103.867 20.0781 103.398 20.3125C102.956 20.5469 102.474 20.7422 101.953 20.8984C101.458 21.0286 100.898 21.0807 100.273 21.0547C100.143 21.0547 100.039 21.0547 99.9609 21.0547C99.9089 21.0547 99.8307 21.0156 99.7266 20.9375C99.5182 21.0677 99.2188 21.1068 98.8281 21.0547C98.4635 21.0026 98.1771 21.0417 97.9688 21.1719C97.6823 21.0417 97.3307 20.9896 96.9141 21.0156C96.5234 21.0156 96.1719 20.9635 95.8594 20.8594C95.4427 21.4062 95.0651 21.9922 94.7266 22.6172C94.388 23.2422 94.0885 23.9062 93.8281 24.6094C94.7135 24.7396 95.4427 24.7917 96.0156 24.7656C96.6146 24.7396 97.1745 24.7005 97.6953 24.6484C98.2161 24.5703 98.75 24.5052 99.2969 24.4531C99.8438 24.375 100.534 24.349 101.367 24.375C101.888 24.0885 102.5 23.9062 103.203 23.8281C103.932 23.724 104.596 23.5677 105.195 23.3594C105.404 23.4375 105.586 23.5807 105.742 23.7891C105.898 23.9714 106.042 24.1536 106.172 24.3359C106.328 24.4922 106.484 24.6354 106.641 24.7656C106.797 24.8958 106.992 24.9479 107.227 24.9219C107.331 25.026 107.396 25.1562 107.422 25.3125C107.474 25.4427 107.513 25.5729 107.539 25.7031C107.565 25.8333 107.604 25.9505 107.656 26.0547C107.734 26.1328 107.852 26.1589 108.008 26.1328C107.617 26.9922 107.161 27.6562 106.641 28.125C106.146 28.5677 105.573 28.9062 104.922 29.1406C104.271 29.375 103.542 29.5573 102.734 29.6875C101.953 29.8177 101.081 29.974 100.117 30.1562C99.8828 30.2083 99.6875 30.1953 99.5312 30.1172C99.375 30.0651 99.1927 30.0391 98.9844 30.0391C98.3854 30.1693 97.6693 30.2865 96.8359 30.3906C96.0026 30.4948 95.1562 30.5339 94.2969 30.5078C93.4375 30.4818 92.6172 30.3646 91.8359 30.1562C91.0547 29.974 90.4167 29.6354 89.9219 29.1406C89.7135 28.9583 89.5703 28.75 89.4922 28.5156C89.4401 28.2552 89.2708 28.0599 88.9844 27.9297C88.9583 27.5911 88.9062 27.2135 88.8281 26.7969C88.75 26.3802 88.6719 25.9505 88.5938 25.5078C88.5156 25.0391 88.4505 24.5833 88.3984 24.1406C88.3724 23.6979 88.3984 23.2943 88.4766 22.9297C88.5547 22.5391 88.7109 22.1875 88.9453 21.875C89.2057 21.5625 89.2969 21.224 89.2188 20.8594C89.349 20.8333 89.4271 20.7682 89.4531 20.6641C89.4792 20.5339 89.5833 20.4818 89.7656 20.5078C89.9219 20.0391 90.0911 19.5964 90.2734 19.1797C90.4557 18.763 90.638 18.3594 90.8203 17.9688C91.0286 17.5781 91.224 17.1875 91.4062 16.7969C91.6146 16.3802 91.8099 15.9245 91.9922 15.4297C91.6276 15.0911 91.3542 14.7266 91.1719 14.3359C91.0156 13.9193 90.8984 13.5156 90.8203 13.125C90.7422 12.7083 90.6771 12.2917 90.625 11.875C90.5729 11.4323 90.4818 10.9896 90.3516 10.5469C90.612 10.1562 90.9245 9.84375 91.2891 9.60938C91.6797 9.34896 92.0964 9.14062 92.5391 8.98438C92.9818 8.82812 93.4635 8.69792 93.9844 8.59375C94.5052 8.48958 95.0521 8.3724 95.625 8.24219C96.6667 7.90365 97.5911 7.64323 98.3984 7.46094C99.2318 7.27865 100.039 7.13542 100.82 7.03125C101.628 6.90104 102.461 6.78385 103.32 6.67969C104.18 6.57552 105.156 6.41927 106.25 6.21094C106.484 6.44531 106.706 6.5625 106.914 6.5625C107.018 6.32812 107.135 6.26302 107.266 6.36719C107.422 6.44531 107.487 6.36719 107.461 6.13281C107.721 6.57552 108.047 6.95312 108.438 7.26562C108.854 7.55208 109.31 7.79948 109.805 8.00781ZM136.172 19.7656C135.99 19.9219 135.833 20.1172 135.703 20.3516C135.573 20.5599 135.443 20.7812 135.312 21.0156C135.182 21.3021 135.039 21.5755 134.883 21.8359C134.727 22.0964 134.531 22.3307 134.297 22.5391C134.167 22.9297 134.036 23.2422 133.906 23.4766C133.776 23.6849 133.568 23.9323 133.281 24.2188C133.021 25.2604 132.409 26.3932 131.445 27.6172C131.419 27.8516 131.341 28.0859 131.211 28.3203C131.107 28.5286 130.99 28.737 130.859 28.9453C130.807 29.0234 130.755 29.1146 130.703 29.2188C130.651 29.2969 130.612 29.362 130.586 29.4141L130.508 29.8047C130.378 30.013 130.234 30.1953 130.078 30.3516C129.922 30.5078 129.779 30.651 129.648 30.7812C129.596 30.8594 129.505 30.9635 129.375 31.0938L128.789 31.3281C126.888 31.0677 125.729 30.0521 125.312 28.2812L125.352 27.8906C125.404 27.7604 125.443 27.6302 125.469 27.5C125.521 27.3438 125.573 27.1875 125.625 27.0312C125.729 26.6667 125.846 26.3021 125.977 25.9375C126.133 25.5729 126.354 25.2474 126.641 24.9609C126.693 24.7786 126.81 24.4922 126.992 24.1016C127.174 23.6849 127.487 23.0729 127.93 22.2656C128.294 21.6406 128.581 21.1458 128.789 20.7812C128.997 20.4167 129.167 20.1302 129.297 19.9219C129.036 19.5052 128.724 19.1276 128.359 18.7891C128.021 18.138 127.721 17.513 127.461 16.9141C127.227 16.3151 127.044 15.7812 126.914 15.3125C126.888 14.974 126.849 14.6875 126.797 14.4531C126.745 14.2188 126.693 13.9714 126.641 13.7109C126.562 13.4245 126.497 13.138 126.445 12.8516C126.393 12.5651 126.367 12.2656 126.367 11.9531C126.237 11.7708 126.159 11.5885 126.133 11.4062L126.211 11.0156C126.289 10.8333 126.302 10.599 126.25 10.3125C126.198 10 126.133 9.6875 126.055 9.375C126.003 9.11458 125.938 8.82812 125.859 8.51562C125.807 8.20312 125.794 7.89062 125.82 7.57812C125.846 7.26562 125.924 6.97917 126.055 6.71875C126.211 6.43229 126.458 6.1849 126.797 5.97656L127.461 5.9375C127.695 6.06771 127.917 6.19792 128.125 6.32812C128.359 6.43229 128.581 6.54948 128.789 6.67969C129.076 6.8099 129.349 6.9401 129.609 7.07031C129.87 7.20052 130.143 7.36979 130.43 7.57812L130.703 8.125L131.211 8.55469V8.98438C131.237 9.08854 131.25 9.23177 131.25 9.41406C131.25 9.7526 131.302 9.96094 131.406 10.0391L131.562 10.5078C131.562 10.8724 131.602 11.224 131.68 11.5625C131.758 11.875 131.836 12.1745 131.914 12.4609C131.992 12.7474 132.07 13.0469 132.148 13.3594C132.227 13.6719 132.24 14.0104 132.188 14.375C132.344 14.2969 132.474 14.2057 132.578 14.1016C132.63 14.0495 132.682 14.0104 132.734 13.9844C132.786 13.9583 132.839 13.9193 132.891 13.8672L135.195 10.7422L135.117 10.3516L135.938 9.57031C136.146 9.36198 136.341 9.16667 136.523 8.98438C136.732 8.80208 136.901 8.60677 137.031 8.39844L137.461 8.08594C138.294 6.78385 139.479 5.97656 141.016 5.66406L141.562 5.58594L141.719 6.09375C141.823 6.38021 142.031 6.64062 142.344 6.875C142.682 7.10938 143.034 7.33073 143.398 7.53906L143.75 7.77344C143.88 8.03385 143.945 8.22917 143.945 8.35938C143.945 8.48958 143.932 8.60677 143.906 8.71094L144.062 9.10156C143.854 9.72656 143.594 10.1823 143.281 10.4688C142.995 10.7552 142.708 11.0156 142.422 11.25C142.188 11.4583 141.966 11.6536 141.758 11.8359C141.576 11.9922 141.432 12.2005 141.328 12.4609L141.055 12.7734C140.508 13.0859 140.156 13.5026 140 14.0234L139.883 14.4922H139.414C139.388 14.4922 139.323 14.5443 139.219 14.6484C139.141 14.7266 139.01 14.9479 138.828 15.3125C138.646 15.5729 138.516 15.7422 138.438 15.8203C138.359 15.8984 138.294 15.9635 138.242 16.0156C138.216 16.1198 138.177 16.224 138.125 16.3281C138.099 16.4062 138.06 16.5104 138.008 16.6406C137.669 16.9792 137.461 17.2396 137.383 17.4219C137.305 17.5781 137.214 17.7604 137.109 17.9688C137.005 18.1771 136.901 18.3854 136.797 18.5938C136.719 18.776 136.576 18.9714 136.367 19.1797L136.172 19.7656ZM161.25 18.2812C161.224 18.5938 161.25 18.8932 161.328 19.1797C161.406 19.4661 161.497 19.7526 161.602 20.0391C161.732 20.2995 161.849 20.5729 161.953 20.8594C162.057 21.1458 162.135 21.4323 162.188 21.7188C162.24 22.0833 162.24 22.487 162.188 22.9297C162.135 23.3464 162.044 23.763 161.914 24.1797C161.784 24.5703 161.615 24.9349 161.406 25.2734C161.198 25.5859 160.951 25.8203 160.664 25.9766C160.299 26.4453 159.857 26.8099 159.336 27.0703C158.815 27.3307 158.333 27.6432 157.891 28.0078C157.604 28.1901 157.279 28.3203 156.914 28.3984C156.576 28.4766 156.224 28.5547 155.859 28.6328C155.573 28.7891 155.234 28.9583 154.844 29.1406C154.453 29.2969 154.049 29.4531 153.633 29.6094C153.216 29.7396 152.799 29.8438 152.383 29.9219C151.966 29.974 151.602 29.987 151.289 29.9609C150.508 30.2474 149.74 30.4297 148.984 30.5078C148.255 30.612 147.396 30.5599 146.406 30.3516C145.469 30.4818 144.596 30.4427 143.789 30.2344C143.008 30.026 142.305 29.7005 141.68 29.2578C141.081 28.7891 140.547 28.2422 140.078 27.6172C139.635 26.9661 139.271 26.2891 138.984 25.5859C138.776 24.1016 138.828 22.7604 139.141 21.5625C139.453 20.3385 139.896 19.2188 140.469 18.2031C141.068 17.1615 141.745 16.2109 142.5 15.3516C143.255 14.4661 143.984 13.6068 144.688 12.7734C144.844 12.8255 144.961 12.8255 145.039 12.7734C145.143 12.6953 145.234 12.6042 145.312 12.5C145.391 12.3698 145.469 12.2526 145.547 12.1484C145.651 12.0443 145.768 11.9792 145.898 11.9531C146.081 11.5625 146.341 11.276 146.68 11.0938C147.044 10.8854 147.331 10.599 147.539 10.2344C147.773 10.1823 147.969 10.1042 148.125 10C148.281 9.89583 148.424 9.77865 148.555 9.64844C148.711 9.51823 148.867 9.40104 149.023 9.29688C149.18 9.16667 149.362 9.07552 149.57 9.02344V8.59375C150.039 8.38542 150.378 8.15104 150.586 7.89062C150.82 7.60417 151.094 7.26562 151.406 6.875C151.641 6.84896 151.823 6.83594 151.953 6.83594C152.109 6.83594 152.331 6.8099 152.617 6.75781C152.826 6.39323 153.008 6.11979 153.164 5.9375C153.346 5.75521 153.607 5.5599 153.945 5.35156C154.258 5.50781 154.596 5.61198 154.961 5.66406C155.352 5.71615 155.69 5.88542 155.977 6.17188C156.003 6.43229 156.081 6.64062 156.211 6.79688C156.341 6.92708 156.484 7.05729 156.641 7.1875C156.797 7.29167 156.94 7.40885 157.07 7.53906C157.227 7.66927 157.331 7.85156 157.383 8.08594C157.487 8.11198 157.552 8.09896 157.578 8.04688C157.63 7.99479 157.708 7.98177 157.812 8.00781C157.891 8.3724 157.982 8.61979 158.086 8.75C158.19 8.85417 158.294 9.07552 158.398 9.41406C158.268 9.67448 158.164 9.94792 158.086 10.2344C158.034 10.4948 157.878 10.6901 157.617 10.8203C157.591 11.0026 157.643 11.1068 157.773 11.1328C157.904 11.1328 157.982 11.1979 158.008 11.3281C158.034 11.5625 157.995 11.7318 157.891 11.8359C158.516 12.8516 159.076 13.9323 159.57 15.0781C160.065 16.1979 160.625 17.2656 161.25 18.2812ZM156.367 21.9922C156.471 21.7057 156.602 21.4714 156.758 21.2891C156.94 21.1068 157.044 20.8333 157.07 20.4688C156.94 20.2604 156.862 20.1042 156.836 20C156.81 19.8698 156.797 19.6745 156.797 19.4141C156.224 18.6068 155.729 17.7474 155.312 16.8359C154.896 15.8984 154.427 15.026 153.906 14.2188C153.854 14.3229 153.763 14.4271 153.633 14.5312C153.503 14.6354 153.359 14.6094 153.203 14.4531C153.151 14.6615 153.06 14.8177 152.93 14.9219C152.799 15 152.656 15.0391 152.5 15.0391C152.344 15.013 152.174 14.974 151.992 14.9219C151.836 14.8438 151.693 14.7526 151.562 14.6484C150.807 15.2474 150.052 15.8333 149.297 16.4062C148.542 16.9792 147.865 17.6432 147.266 18.3984C147.161 18.4505 147.096 18.4766 147.07 18.4766C147.044 18.4505 146.966 18.4635 146.836 18.5156C146.628 19.0104 146.367 19.4661 146.055 19.8828C145.768 20.2734 145.482 20.6771 145.195 21.0938C144.909 21.5104 144.661 21.9531 144.453 22.4219C144.245 22.8906 144.128 23.4375 144.102 24.0625C144.544 24.4271 145.065 24.6484 145.664 24.7266C146.263 24.8047 146.875 24.8177 147.5 24.7656C148.151 24.7135 148.776 24.6354 149.375 24.5312C150 24.401 150.573 24.3359 151.094 24.3359C152.188 24.0755 153.125 23.737 153.906 23.3203C154.688 22.8776 155.508 22.4349 156.367 21.9922ZM185.898 7.77344C185.951 8.34635 186.042 8.84115 186.172 9.25781C186.302 9.67448 186.445 10.0781 186.602 10.4688C186.732 10.8333 186.849 11.1979 186.953 11.5625C187.083 11.901 187.174 12.3177 187.227 12.8125C187.018 13.4896 186.862 14.1146 186.758 14.6875C186.68 15.2604 186.589 15.8594 186.484 16.4844C186.068 17.3958 185.664 18.2031 185.273 18.9062C184.883 19.6094 184.57 20.2214 184.336 20.7422C184.206 20.8724 184.089 21.0286 183.984 21.2109C183.906 21.3672 183.815 21.5365 183.711 21.7188C183.659 21.7969 183.594 21.9141 183.516 22.0703C183.438 22.2266 183.372 22.3307 183.32 22.3828L182.539 22.1094L182.383 23.0859L181.836 23.2422L181.445 23.7109C180.951 24.5703 180.43 25.2995 179.883 25.8984C179.336 26.4714 178.711 26.9922 178.008 27.4609C177.331 27.9036 176.549 28.3203 175.664 28.7109C174.805 29.1016 173.828 29.5312 172.734 30C172.292 29.9479 171.901 29.9219 171.562 29.9219C171.25 29.8958 170.951 29.8698 170.664 29.8438C170.169 29.8438 169.557 29.8047 168.828 29.7266C168.75 29.5182 168.633 29.375 168.477 29.2969C168.32 29.2188 168.177 29.1797 168.047 29.1797C167.604 28.9714 167.266 28.6719 167.031 28.2812C166.823 27.8646 166.615 27.4219 166.406 26.9531C166.276 26.6667 166.146 26.4062 166.016 26.1719C165.885 25.9115 165.742 25.651 165.586 25.3906L166.25 25.1953L165.391 24.2578C165.339 24.1797 165.273 24.1146 165.195 24.0625C165.117 23.9844 165.052 23.9062 165 23.8281L164.961 23.2031C164.883 21.4062 164.844 19.7656 164.844 18.2812C164.87 16.7708 165.078 15.4297 165.469 14.2578V13.8281C165.547 13.2552 165.625 12.7865 165.703 12.4219C165.781 12.0312 165.846 11.6667 165.898 11.3281C165.977 10.7552 166.094 10.2214 166.25 9.72656C166.615 9.64844 166.888 9.50521 167.07 9.29688C167.253 9.0625 167.409 8.85417 167.539 8.67188C167.904 8.64583 168.151 8.69792 168.281 8.82812C168.411 8.95833 168.542 9.16667 168.672 9.45312C168.802 9.6875 168.958 9.94792 169.141 10.2344C169.349 10.5208 169.648 10.7422 170.039 10.8984C170.091 11.1068 170.156 11.3281 170.234 11.5625C170.339 11.7708 170.443 12.0052 170.547 12.2656C170.755 12.7083 170.938 13.1771 171.094 13.6719C171.276 14.1406 171.38 14.5964 171.406 15.0391C171.146 15.5339 170.938 16.1068 170.781 16.7578C170.651 17.4089 170.56 18.0729 170.508 18.75C170.482 19.401 170.495 20.0391 170.547 20.6641C170.625 21.263 170.742 21.7708 170.898 22.1875L171.133 22.6953L171.797 22.6172C172.578 22.4089 173.281 22.1875 173.906 21.9531C174.557 21.6927 175.156 21.3932 175.703 21.0547C176.25 20.7161 176.771 20.3255 177.266 19.8828C177.76 19.4141 178.281 18.8802 178.828 18.2812C179.375 17.6823 179.844 17.0052 180.234 16.25C180.651 15.4688 180.99 14.6615 181.25 13.8281C181.536 12.9948 181.745 12.1745 181.875 11.3672C182.031 10.5339 182.135 9.7526 182.188 9.02344C182.63 8.86719 182.852 8.55469 182.852 8.08594L182.773 7.65625C182.669 7.5 182.669 7.31771 182.773 7.10938C182.93 6.61458 183.294 6.23698 183.867 5.97656C184.284 6.23698 184.648 6.52344 184.961 6.83594C185.299 7.14844 185.612 7.46094 185.898 7.77344ZM192.539 25.9375C192.253 26.9792 191.992 27.7734 191.758 28.3203C191.549 28.8411 191.224 29.388 190.781 29.9609C190.443 29.9089 190.208 29.9479 190.078 30.0781C189.948 30.2083 189.805 30.3255 189.648 30.4297C189.414 30.4818 189.245 30.4818 189.141 30.4297C189.036 30.3776 188.945 30.3125 188.867 30.2344C188.789 30.1823 188.685 30.1172 188.555 30.0391C188.451 29.987 188.281 29.9609 188.047 29.9609C187.995 29.7526 187.93 29.5573 187.852 29.375C187.799 29.1927 187.63 29.1276 187.344 29.1797C187.396 28.9714 187.409 28.8021 187.383 28.6719C187.357 28.5156 187.318 28.3854 187.266 28.2812C187.24 28.151 187.214 28.0339 187.188 27.9297C187.161 27.7995 187.174 27.6432 187.227 27.4609C187.096 27.4609 186.992 27.3698 186.914 27.1875C186.836 27.0052 186.745 26.8229 186.641 26.6406C186.719 26.1719 186.797 25.7292 186.875 25.3125C186.953 24.8958 187.044 24.5052 187.148 24.1406C187.279 23.776 187.383 23.4115 187.461 23.0469C187.539 22.6823 187.5 22.3047 187.344 21.9141C187.448 21.9922 187.526 21.9792 187.578 21.875C187.63 21.7448 187.669 21.5885 187.695 21.4062C187.721 21.1979 187.734 21.0026 187.734 20.8203C187.734 20.612 187.721 20.4427 187.695 20.3125C187.956 19.6354 188.164 18.9453 188.32 18.2422C188.503 17.513 188.659 16.7969 188.789 16.0938C188.945 15.3906 189.102 14.7005 189.258 14.0234C189.414 13.3464 189.622 12.7214 189.883 12.1484C190.169 12.0964 190.482 12.1354 190.82 12.2656C191.185 12.3698 191.406 12.513 191.484 12.6953C192.161 12.1745 192.76 11.5495 193.281 10.8203C193.802 10.0651 194.336 9.33594 194.883 8.63281C195.43 7.92969 196.029 7.30469 196.68 6.75781C197.357 6.21094 198.203 5.88542 199.219 5.78125C199.74 6.17188 200.312 6.57552 200.938 6.99219C201.589 7.38281 202.122 7.90365 202.539 8.55469C202.747 8.65885 202.917 8.77604 203.047 8.90625C203.203 9.01042 203.385 9.1276 203.594 9.25781V9.72656C203.906 10.013 204.154 10.3516 204.336 10.7422C204.544 11.1068 204.727 11.5104 204.883 11.9531C205.039 12.3698 205.195 12.7995 205.352 13.2422C205.508 13.6589 205.69 14.0625 205.898 14.4531C205.846 14.5833 205.82 14.7005 205.82 14.8047C205.82 14.8828 205.833 14.974 205.859 15.0781C205.911 15.1823 205.951 15.2865 205.977 15.3906C206.003 15.4948 206.003 15.638 205.977 15.8203C205.898 16.9661 205.521 17.8906 204.844 18.5938C204.193 19.2969 203.398 19.8828 202.461 20.3516C201.523 20.7943 200.521 21.1719 199.453 21.4844C198.385 21.7969 197.422 22.1354 196.562 22.5C196.562 22.6042 196.602 22.6562 196.68 22.6562C196.784 22.6562 196.823 22.7214 196.797 22.8516C197.422 23.2422 197.917 23.5547 198.281 23.7891C198.646 24.0234 198.984 24.2188 199.297 24.375C199.635 24.5312 199.987 24.6745 200.352 24.8047C200.742 24.9089 201.276 25.0391 201.953 25.1953C202.63 25.3516 203.151 25.4818 203.516 25.5859C203.906 25.6641 204.258 25.7422 204.57 25.8203C204.883 25.8724 205.195 25.9245 205.508 25.9766C205.846 26.0026 206.315 26.0417 206.914 26.0938C207.148 26.3281 207.344 26.6146 207.5 26.9531C207.682 27.2656 207.799 27.5911 207.852 27.9297C207.904 28.2422 207.917 28.5547 207.891 28.8672C207.865 29.1536 207.773 29.388 207.617 29.5703C207.643 29.6484 207.695 29.6875 207.773 29.6875C207.878 29.6615 207.982 29.6615 208.086 29.6875C207.93 29.7917 207.799 29.9219 207.695 30.0781C207.591 30.2344 207.487 30.3906 207.383 30.5469C207.279 30.7031 207.161 30.8333 207.031 30.9375C206.901 31.0677 206.719 31.1458 206.484 31.1719C205.677 31.4844 204.661 31.4974 203.438 31.2109C202.214 30.9505 200.664 30.4557 198.789 29.7266C197.852 29.362 197.083 29.0495 196.484 28.7891C195.911 28.5026 195.404 28.2292 194.961 27.9688C194.544 27.6823 194.154 27.3828 193.789 27.0703C193.451 26.7578 193.034 26.3802 192.539 25.9375ZM198.125 12.5391C197.839 12.9557 197.513 13.3333 197.148 13.6719C196.81 14.0104 196.471 14.362 196.133 14.7266C195.82 15.0651 195.534 15.4557 195.273 15.8984C195.013 16.3151 194.831 16.8099 194.727 17.3828C195.638 17.2786 196.589 17.0312 197.578 16.6406C198.568 16.224 199.505 15.8333 200.391 15.4688C200.286 14.6615 200 14.0104 199.531 13.5156C199.089 13.0208 198.62 12.6953 198.125 12.5391ZM226.328 26.6016C225.573 26.0286 224.948 25.3125 224.453 24.4531C223.984 23.5938 223.607 22.6823 223.32 21.7188C223.06 20.7552 222.878 19.7656 222.773 18.75C222.695 17.7083 222.669 16.7188 222.695 15.7812C222.93 15.0781 223.216 14.4401 223.555 13.8672C223.893 13.2682 224.271 12.7083 224.688 12.1875C225.104 11.6406 225.534 11.1328 225.977 10.6641C226.445 10.1693 226.901 9.67448 227.344 9.17969C227.5 9.17969 227.643 9.21875 227.773 9.29688C227.878 9.01042 228.034 8.76302 228.242 8.55469C228.451 8.34635 228.672 8.16406 228.906 8.00781C229.141 7.82552 229.375 7.65625 229.609 7.5C229.844 7.31771 230.039 7.10938 230.195 6.875C230.846 6.71875 231.419 6.4974 231.914 6.21094C232.435 5.92448 232.93 5.61198 233.398 5.27344C233.867 4.9349 234.349 4.6224 234.844 4.33594C235.339 4.04948 235.911 3.82812 236.562 3.67188C236.797 3.41146 237.083 3.1901 237.422 3.00781C237.786 2.82552 238.138 2.65625 238.477 2.5C238.841 2.34375 239.18 2.17448 239.492 1.99219C239.831 1.8099 240.104 1.5625 240.312 1.25C240.469 1.45833 240.69 1.53646 240.977 1.48438C241.263 1.40625 241.523 1.32812 241.758 1.25C241.914 1.22396 242.044 1.25 242.148 1.32812C242.253 1.40625 242.344 1.4974 242.422 1.60156C242.526 1.67969 242.604 1.73177 242.656 1.75781C242.734 1.78385 242.812 1.70573 242.891 1.52344C243.099 1.54948 243.151 1.64062 243.047 1.79688C242.969 1.95312 242.917 2.05729 242.891 2.10938C243.151 2.05729 243.359 2.10938 243.516 2.26562C243.698 2.39583 243.971 2.48698 244.336 2.53906C244.466 2.66927 244.505 2.77344 244.453 2.85156C244.401 2.92969 244.362 3.0599 244.336 3.24219C245.273 3.52865 245.872 3.98438 246.133 4.60938C246.393 5.20833 246.419 5.84635 246.211 6.52344C246.003 7.17448 245.612 7.78646 245.039 8.35938C244.492 8.90625 243.88 9.27083 243.203 9.45312C242.396 9.66146 241.641 9.86979 240.938 10.0781C240.26 10.2865 239.596 10.5208 238.945 10.7812C238.32 11.0417 237.721 11.3542 237.148 11.7188C236.602 12.0573 236.12 12.4609 235.703 12.9297C234.974 13.138 234.31 13.4245 233.711 13.7891C233.138 14.1536 232.591 14.5573 232.07 15C231.576 15.4427 231.094 15.9115 230.625 16.4062C230.156 16.875 229.688 17.3438 229.219 17.8125C229.219 18.2552 229.141 18.5938 228.984 18.8281C228.828 19.0625 228.659 19.2969 228.477 19.5312C228.529 20.026 228.633 20.4557 228.789 20.8203C228.971 21.1589 229.154 21.5104 229.336 21.875C231.419 22.5 233.62 22.8906 235.938 23.0469C238.281 23.1771 240.599 23.2552 242.891 23.2812C243.125 23.5938 243.385 23.8932 243.672 24.1797C243.984 24.4401 244.258 24.7135 244.492 25C244.753 25.2865 244.948 25.625 245.078 26.0156C245.234 26.3802 245.273 26.8229 245.195 27.3438C244.753 27.7865 244.271 28.2161 243.75 28.6328C243.229 29.0234 242.708 29.4141 242.188 29.8047C241.953 29.8307 241.667 29.8307 241.328 29.8047C241.016 29.7786 240.677 29.7656 240.312 29.7656C239.974 29.7656 239.622 29.7917 239.258 29.8438C238.919 29.8698 238.594 29.9479 238.281 30.0781C236.641 30.026 234.961 29.8307 233.242 29.4922C231.523 29.1276 229.935 28.6979 228.477 28.2031C228.19 27.8646 227.891 27.5521 227.578 27.2656C227.266 26.9531 226.849 26.7318 226.328 26.6016ZM267.148 26.2109C267.201 26.888 267.122 27.4479 266.914 27.8906C266.706 28.3333 266.419 28.7109 266.055 29.0234C265.69 29.3359 265.273 29.5833 264.805 29.7656C264.336 29.9479 263.88 30.1172 263.438 30.2734C263.229 30.1432 263.021 30.013 262.812 29.8828C262.63 29.7266 262.409 29.6094 262.148 29.5312C261.81 28.9062 261.484 28.3594 261.172 27.8906C260.859 27.3958 260.716 26.8359 260.742 26.2109C260.742 26.1849 260.755 26.0417 260.781 25.7812C260.833 25.5208 260.885 25.2344 260.938 24.9219C261.016 24.6094 261.068 24.3229 261.094 24.0625C261.146 23.776 261.172 23.6198 261.172 23.5938C260.573 23.6458 259.948 23.776 259.297 23.9844C258.646 24.1927 258.008 24.4401 257.383 24.7266C256.784 25.013 256.211 25.2995 255.664 25.5859C255.143 25.8724 254.714 26.1198 254.375 26.3281C254.375 26.4062 254.323 26.6016 254.219 26.9141C254.115 27.2005 253.984 27.513 253.828 27.8516C253.672 28.1641 253.503 28.4505 253.32 28.7109C253.138 28.9714 252.956 29.1016 252.773 29.1016C252.799 29.1797 252.839 29.2578 252.891 29.3359C252.943 29.4141 252.943 29.5182 252.891 29.6484C252.526 29.7526 252.201 29.8828 251.914 30.0391C251.628 30.2214 251.328 30.3646 251.016 30.4688C250.703 30.599 250.365 30.6641 250 30.6641C249.635 30.6641 249.206 30.5339 248.711 30.2734C248.711 30.1172 248.646 29.987 248.516 29.8828C248.385 29.7526 248.242 29.6484 248.086 29.5703C247.956 29.4661 247.839 29.388 247.734 29.3359C247.63 29.2578 247.578 29.1927 247.578 29.1406C247.448 29.1667 247.396 29.0755 247.422 28.8672C247.448 28.6589 247.552 28.6068 247.734 28.7109C247.448 28.3464 247.266 28.0339 247.188 27.7734C247.135 27.487 246.992 27.1354 246.758 26.7188C246.81 26.6667 246.862 26.5755 246.914 26.4453C246.94 26.3151 246.966 26.1979 246.992 26.0938C247.018 25.9896 247.057 25.9115 247.109 25.8594C247.161 25.8073 247.227 25.8203 247.305 25.8984C247.253 25.6641 247.253 25.4688 247.305 25.3125C247.357 25.1562 247.409 25.013 247.461 24.8828C247.513 24.7526 247.552 24.6224 247.578 24.4922C247.604 24.362 247.565 24.2188 247.461 24.0625C247.878 23.4896 248.151 22.8776 248.281 22.2266C248.411 21.5495 248.49 20.9375 248.516 20.3906C248.698 20.2083 248.854 19.9479 248.984 19.6094C249.141 19.2708 249.258 18.9323 249.336 18.5938C249.414 18.2292 249.44 17.8906 249.414 17.5781C249.414 17.2396 249.375 16.9661 249.297 16.7578C249.323 16.6276 249.466 16.5885 249.727 16.6406C249.883 15.7812 249.987 14.8177 250.039 13.75C250.117 12.6562 250.234 11.6276 250.391 10.6641C250.547 9.67448 250.807 8.8151 251.172 8.08594C251.536 7.33073 252.122 6.83594 252.93 6.60156C253.086 7.14844 253.281 7.63021 253.516 8.04688C253.776 8.46354 254.049 8.86719 254.336 9.25781C254.648 9.6224 254.948 10 255.234 10.3906C255.547 10.7812 255.833 11.224 256.094 11.7188C256.068 12.2135 256.016 12.7865 255.938 13.4375C255.859 14.0885 255.755 14.7526 255.625 15.4297C255.521 16.1068 255.404 16.7578 255.273 17.3828C255.169 18.0078 255.065 18.5417 254.961 18.9844C254.987 19.1146 255.052 19.1927 255.156 19.2188C255.286 19.2448 255.312 19.362 255.234 19.5703C255.859 19.4141 256.51 19.2708 257.188 19.1406C257.865 19.0104 258.542 18.8672 259.219 18.7109C259.896 18.5547 260.547 18.3854 261.172 18.2031C261.823 17.9948 262.422 17.7474 262.969 17.4609C263.099 16.4453 263.268 15.4297 263.477 14.4141C263.685 13.3984 263.711 12.3568 263.555 11.2891C263.685 11.1849 263.789 11.0547 263.867 10.8984C263.945 10.7422 264.076 10.638 264.258 10.5859C264.128 10.0911 264.076 9.57031 264.102 9.02344C264.128 8.47656 264.219 7.95573 264.375 7.46094C264.557 6.96615 264.805 6.54948 265.117 6.21094C265.456 5.84635 265.859 5.61198 266.328 5.50781C266.615 5.92448 266.862 6.38021 267.07 6.875C267.279 7.34375 267.487 7.82552 267.695 8.32031C267.93 8.78906 268.164 9.24479 268.398 9.6875C268.659 10.1042 268.984 10.4688 269.375 10.7812C269.453 11.5365 269.505 12.3177 269.531 13.125C269.583 13.9323 269.622 14.7526 269.648 15.5859C269.44 16.5755 269.206 17.5391 268.945 18.4766C268.711 19.388 268.542 20.3646 268.438 21.4062C268.255 21.6146 268.112 21.849 268.008 22.1094C267.904 22.3698 267.799 22.6432 267.695 22.9297C267.591 23.1901 267.474 23.4505 267.344 23.7109C267.214 23.9453 267.057 24.1536 266.875 24.3359C266.979 24.6484 266.992 24.9479 266.914 25.2344C266.862 25.4948 266.94 25.8203 267.148 26.2109ZM293.203 18.2812C293.177 18.5938 293.203 18.8932 293.281 19.1797C293.359 19.4661 293.451 19.7526 293.555 20.0391C293.685 20.2995 293.802 20.5729 293.906 20.8594C294.01 21.1458 294.089 21.4323 294.141 21.7188C294.193 22.0833 294.193 22.487 294.141 22.9297C294.089 23.3464 293.997 23.763 293.867 24.1797C293.737 24.5703 293.568 24.9349 293.359 25.2734C293.151 25.5859 292.904 25.8203 292.617 25.9766C292.253 26.4453 291.81 26.8099 291.289 27.0703C290.768 27.3307 290.286 27.6432 289.844 28.0078C289.557 28.1901 289.232 28.3203 288.867 28.3984C288.529 28.4766 288.177 28.5547 287.812 28.6328C287.526 28.7891 287.188 28.9583 286.797 29.1406C286.406 29.2969 286.003 29.4531 285.586 29.6094C285.169 29.7396 284.753 29.8438 284.336 29.9219C283.919 29.974 283.555 29.987 283.242 29.9609C282.461 30.2474 281.693 30.4297 280.938 30.5078C280.208 30.612 279.349 30.5599 278.359 30.3516C277.422 30.4818 276.549 30.4427 275.742 30.2344C274.961 30.026 274.258 29.7005 273.633 29.2578C273.034 28.7891 272.5 28.2422 272.031 27.6172C271.589 26.9661 271.224 26.2891 270.938 25.5859C270.729 24.1016 270.781 22.7604 271.094 21.5625C271.406 20.3385 271.849 19.2188 272.422 18.2031C273.021 17.1615 273.698 16.2109 274.453 15.3516C275.208 14.4661 275.938 13.6068 276.641 12.7734C276.797 12.8255 276.914 12.8255 276.992 12.7734C277.096 12.6953 277.188 12.6042 277.266 12.5C277.344 12.3698 277.422 12.2526 277.5 12.1484C277.604 12.0443 277.721 11.9792 277.852 11.9531C278.034 11.5625 278.294 11.276 278.633 11.0938C278.997 10.8854 279.284 10.599 279.492 10.2344C279.727 10.1823 279.922 10.1042 280.078 10C280.234 9.89583 280.378 9.77865 280.508 9.64844C280.664 9.51823 280.82 9.40104 280.977 9.29688C281.133 9.16667 281.315 9.07552 281.523 9.02344V8.59375C281.992 8.38542 282.331 8.15104 282.539 7.89062C282.773 7.60417 283.047 7.26562 283.359 6.875C283.594 6.84896 283.776 6.83594 283.906 6.83594C284.062 6.83594 284.284 6.8099 284.57 6.75781C284.779 6.39323 284.961 6.11979 285.117 5.9375C285.299 5.75521 285.56 5.5599 285.898 5.35156C286.211 5.50781 286.549 5.61198 286.914 5.66406C287.305 5.71615 287.643 5.88542 287.93 6.17188C287.956 6.43229 288.034 6.64062 288.164 6.79688C288.294 6.92708 288.438 7.05729 288.594 7.1875C288.75 7.29167 288.893 7.40885 289.023 7.53906C289.18 7.66927 289.284 7.85156 289.336 8.08594C289.44 8.11198 289.505 8.09896 289.531 8.04688C289.583 7.99479 289.661 7.98177 289.766 8.00781C289.844 8.3724 289.935 8.61979 290.039 8.75C290.143 8.85417 290.247 9.07552 290.352 9.41406C290.221 9.67448 290.117 9.94792 290.039 10.2344C289.987 10.4948 289.831 10.6901 289.57 10.8203C289.544 11.0026 289.596 11.1068 289.727 11.1328C289.857 11.1328 289.935 11.1979 289.961 11.3281C289.987 11.5625 289.948 11.7318 289.844 11.8359C290.469 12.8516 291.029 13.9323 291.523 15.0781C292.018 16.1979 292.578 17.2656 293.203 18.2812ZM288.32 21.9922C288.424 21.7057 288.555 21.4714 288.711 21.2891C288.893 21.1068 288.997 20.8333 289.023 20.4688C288.893 20.2604 288.815 20.1042 288.789 20C288.763 19.8698 288.75 19.6745 288.75 19.4141C288.177 18.6068 287.682 17.7474 287.266 16.8359C286.849 15.8984 286.38 15.026 285.859 14.2188C285.807 14.3229 285.716 14.4271 285.586 14.5312C285.456 14.6354 285.312 14.6094 285.156 14.4531C285.104 14.6615 285.013 14.8177 284.883 14.9219C284.753 15 284.609 15.0391 284.453 15.0391C284.297 15.013 284.128 14.974 283.945 14.9219C283.789 14.8438 283.646 14.7526 283.516 14.6484C282.76 15.2474 282.005 15.8333 281.25 16.4062C280.495 16.9792 279.818 17.6432 279.219 18.3984C279.115 18.4505 279.049 18.4766 279.023 18.4766C278.997 18.4505 278.919 18.4635 278.789 18.5156C278.581 19.0104 278.32 19.4661 278.008 19.8828C277.721 20.2734 277.435 20.6771 277.148 21.0938C276.862 21.5104 276.615 21.9531 276.406 22.4219C276.198 22.8906 276.081 23.4375 276.055 24.0625C276.497 24.4271 277.018 24.6484 277.617 24.7266C278.216 24.8047 278.828 24.8177 279.453 24.7656C280.104 24.7135 280.729 24.6354 281.328 24.5312C281.953 24.401 282.526 24.3359 283.047 24.3359C284.141 24.0755 285.078 23.737 285.859 23.3203C286.641 22.8776 287.461 22.4349 288.32 21.9922ZM302.266 27.2656C302.396 28.0469 302.344 28.6589 302.109 29.1016C301.901 29.5443 301.589 29.8698 301.172 30.0781C300.781 30.3125 300.326 30.4427 299.805 30.4688C299.284 30.4948 298.789 30.4688 298.32 30.3906C298.06 30.026 297.826 29.5703 297.617 29.0234C297.409 28.4766 297.214 27.9167 297.031 27.3438C296.849 26.7448 296.68 26.1589 296.523 25.5859C296.393 25.013 296.276 24.5052 296.172 24.0625C296.302 23.75 296.38 23.3984 296.406 23.0078C296.458 22.5911 296.484 22.1745 296.484 21.7578C296.51 21.3411 296.523 20.9245 296.523 20.5078C296.549 20.0651 296.589 19.6484 296.641 19.2578C296.823 18.1641 297.083 17.1224 297.422 16.1328C297.786 15.1432 298.073 14.1146 298.281 13.0469C298.333 12.8125 298.307 12.5911 298.203 12.3828C298.125 12.1745 298.112 11.9792 298.164 11.7969C298.19 11.6927 298.268 11.6276 298.398 11.6016C298.529 11.5495 298.607 11.4583 298.633 11.3281C298.711 11.0417 298.724 10.8073 298.672 10.625C298.646 10.4427 298.698 10.2214 298.828 9.96094C298.958 9.7526 299.115 9.45312 299.297 9.0625C299.505 8.64583 299.583 8.21615 299.531 7.77344C299.766 7.61719 299.987 7.4349 300.195 7.22656C300.404 7.01823 300.612 6.83594 300.82 6.67969C301.055 6.4974 301.302 6.34115 301.562 6.21094C301.849 6.08073 302.188 6.01562 302.578 6.01562C302.786 6.27604 302.917 6.5625 302.969 6.875C303.047 7.1875 303.112 7.5 303.164 7.8125C303.242 8.125 303.346 8.42448 303.477 8.71094C303.607 8.97135 303.828 9.17969 304.141 9.33594C304.141 9.54427 304.141 9.80469 304.141 10.1172C304.141 10.4297 304.154 10.7422 304.18 11.0547C304.206 11.3411 304.258 11.6146 304.336 11.875C304.44 12.1094 304.596 12.2656 304.805 12.3438C304.336 13.5938 303.893 14.8307 303.477 16.0547C303.086 17.2786 302.76 18.5156 302.5 19.7656C302.24 20.9896 302.07 22.2266 301.992 23.4766C301.94 24.7266 302.031 25.9896 302.266 27.2656ZM323.047 30.0781C322.63 30.1042 322.109 30.0911 321.484 30.0391C320.885 29.987 320.326 30.0781 319.805 30.3125C318.424 30.2604 317.018 30.0911 315.586 29.8047C314.154 29.5182 312.839 29.1667 311.641 28.75C311.38 28.4635 311.12 28.2031 310.859 27.9688C310.599 27.7083 310.247 27.526 309.805 27.4219C309.18 26.9271 308.672 26.3281 308.281 25.625C307.891 24.8958 307.578 24.1276 307.344 23.3203C307.109 22.513 306.953 21.6927 306.875 20.8594C306.797 20 306.771 19.1797 306.797 18.3984C307.188 17.2266 307.734 16.224 308.438 15.3906C309.167 14.5312 309.909 13.6849 310.664 12.8516C311.003 12.6953 311.25 12.5391 311.406 12.3828C311.589 12.2005 311.771 12.0443 311.953 11.9141C312.161 11.7578 312.357 11.6146 312.539 11.4844C312.747 11.3281 312.93 11.1458 313.086 10.9375C313.633 10.8073 314.102 10.625 314.492 10.3906C314.909 10.1302 315.312 9.86979 315.703 9.60938C316.094 9.32292 316.497 9.0625 316.914 8.82812C317.331 8.59375 317.812 8.41146 318.359 8.28125C318.568 8.04688 318.815 7.86458 319.102 7.73438C319.388 7.57812 319.674 7.4349 319.961 7.30469C320.273 7.14844 320.56 6.99219 320.82 6.83594C321.107 6.67969 321.328 6.47135 321.484 6.21094C321.615 6.41927 321.797 6.4974 322.031 6.44531C322.266 6.36719 322.487 6.28906 322.695 6.21094C322.826 6.1849 322.93 6.21094 323.008 6.28906C323.112 6.36719 323.203 6.44531 323.281 6.52344C323.359 6.60156 323.424 6.65365 323.477 6.67969C323.555 6.67969 323.62 6.61458 323.672 6.48438C323.802 6.48438 323.841 6.54948 323.789 6.67969C323.737 6.8099 323.698 6.90104 323.672 6.95312C323.88 6.92708 324.049 6.97917 324.18 7.10938C324.336 7.21354 324.57 7.27865 324.883 7.30469C324.987 7.4349 325.013 7.53906 324.961 7.61719C324.909 7.66927 324.883 7.77344 324.883 7.92969C325.664 8.16406 326.159 8.54167 326.367 9.0625C326.576 9.55729 326.589 10.0781 326.406 10.625C326.224 11.1719 325.898 11.6797 325.43 12.1484C324.961 12.6172 324.453 12.9297 323.906 13.0859C322.656 13.4245 321.471 13.8021 320.352 14.2188C319.258 14.6094 318.359 15.1953 317.656 15.9766C317.031 16.1589 316.471 16.4062 315.977 16.7188C315.508 17.0052 315.052 17.3438 314.609 17.7344C314.193 18.099 313.789 18.4896 313.398 18.9062C313.034 19.2969 312.643 19.6875 312.227 20.0781C312.253 20.4427 312.188 20.7292 312.031 20.9375C311.901 21.1198 311.771 21.3151 311.641 21.5234C311.693 21.9141 311.784 22.2656 311.914 22.5781C312.044 22.8646 312.188 23.151 312.344 23.4375C314.062 23.9583 315.885 24.2839 317.812 24.4141C319.766 24.5443 321.719 24.6224 323.672 24.6484C323.854 24.9089 324.062 25.1562 324.297 25.3906C324.557 25.599 324.792 25.8333 325 26.0938C325.208 26.3281 325.378 26.6016 325.508 26.9141C325.638 27.2005 325.664 27.5651 325.586 28.0078C325.221 28.3984 324.818 28.763 324.375 29.1016C323.932 29.4141 323.49 29.7396 323.047 30.0781ZM348.75 8.00781C348.776 8.1901 348.776 8.33333 348.75 8.4375C348.75 8.51562 348.737 8.59375 348.711 8.67188C348.711 8.75 348.711 8.84115 348.711 8.94531C348.711 9.02344 348.737 9.15365 348.789 9.33594C348.242 10.2214 347.604 10.8333 346.875 11.1719C346.172 11.4844 345.404 11.7188 344.57 11.875C343.737 12.0052 342.878 12.1484 341.992 12.3047C341.133 12.4609 340.273 12.7995 339.414 13.3203C339.076 13.1901 338.763 13.1901 338.477 13.3203C338.216 13.4505 337.826 13.4896 337.305 13.4375C337.148 13.5938 336.953 13.7109 336.719 13.7891C336.484 13.8411 336.25 13.9062 336.016 13.9844C336.12 14.2188 336.159 14.4661 336.133 14.7266C336.133 14.9609 336.172 15.1562 336.25 15.3125C337.161 15.3906 338.164 15.3776 339.258 15.2734C340.378 15.1693 341.471 15.1042 342.539 15.0781C342.565 15.2083 342.552 15.2995 342.5 15.3516C342.448 15.3776 342.435 15.4427 342.461 15.5469C342.643 15.6771 342.826 15.8464 343.008 16.0547C343.19 16.237 343.372 16.4193 343.555 16.6016C343.737 16.7839 343.919 16.9401 344.102 17.0703C344.31 17.1745 344.544 17.2135 344.805 17.1875C344.909 17.3958 344.974 17.6302 345 17.8906C345.052 18.125 345.026 18.3724 344.922 18.6328C344.505 18.9193 344.089 19.2188 343.672 19.5312C343.255 19.8177 342.812 20.0781 342.344 20.3125C341.901 20.5469 341.419 20.7422 340.898 20.8984C340.404 21.0286 339.844 21.0807 339.219 21.0547C339.089 21.0547 338.984 21.0547 338.906 21.0547C338.854 21.0547 338.776 21.0156 338.672 20.9375C338.464 21.0677 338.164 21.1068 337.773 21.0547C337.409 21.0026 337.122 21.0417 336.914 21.1719C336.628 21.0417 336.276 20.9896 335.859 21.0156C335.469 21.0156 335.117 20.9635 334.805 20.8594C334.388 21.4062 334.01 21.9922 333.672 22.6172C333.333 23.2422 333.034 23.9062 332.773 24.6094C333.659 24.7396 334.388 24.7917 334.961 24.7656C335.56 24.7396 336.12 24.7005 336.641 24.6484C337.161 24.5703 337.695 24.5052 338.242 24.4531C338.789 24.375 339.479 24.349 340.312 24.375C340.833 24.0885 341.445 23.9062 342.148 23.8281C342.878 23.724 343.542 23.5677 344.141 23.3594C344.349 23.4375 344.531 23.5807 344.688 23.7891C344.844 23.9714 344.987 24.1536 345.117 24.3359C345.273 24.4922 345.43 24.6354 345.586 24.7656C345.742 24.8958 345.938 24.9479 346.172 24.9219C346.276 25.026 346.341 25.1562 346.367 25.3125C346.419 25.4427 346.458 25.5729 346.484 25.7031C346.51 25.8333 346.549 25.9505 346.602 26.0547C346.68 26.1328 346.797 26.1589 346.953 26.1328C346.562 26.9922 346.107 27.6562 345.586 28.125C345.091 28.5677 344.518 28.9062 343.867 29.1406C343.216 29.375 342.487 29.5573 341.68 29.6875C340.898 29.8177 340.026 29.974 339.062 30.1562C338.828 30.2083 338.633 30.1953 338.477 30.1172C338.32 30.0651 338.138 30.0391 337.93 30.0391C337.331 30.1693 336.615 30.2865 335.781 30.3906C334.948 30.4948 334.102 30.5339 333.242 30.5078C332.383 30.4818 331.562 30.3646 330.781 30.1562C330 29.974 329.362 29.6354 328.867 29.1406C328.659 28.9583 328.516 28.75 328.438 28.5156C328.385 28.2552 328.216 28.0599 327.93 27.9297C327.904 27.5911 327.852 27.2135 327.773 26.7969C327.695 26.3802 327.617 25.9505 327.539 25.5078C327.461 25.0391 327.396 24.5833 327.344 24.1406C327.318 23.6979 327.344 23.2943 327.422 22.9297C327.5 22.5391 327.656 22.1875 327.891 21.875C328.151 21.5625 328.242 21.224 328.164 20.8594C328.294 20.8333 328.372 20.7682 328.398 20.6641C328.424 20.5339 328.529 20.4818 328.711 20.5078C328.867 20.0391 329.036 19.5964 329.219 19.1797C329.401 18.763 329.583 18.3594 329.766 17.9688C329.974 17.5781 330.169 17.1875 330.352 16.7969C330.56 16.3802 330.755 15.9245 330.938 15.4297C330.573 15.0911 330.299 14.7266 330.117 14.3359C329.961 13.9193 329.844 13.5156 329.766 13.125C329.688 12.7083 329.622 12.2917 329.57 11.875C329.518 11.4323 329.427 10.9896 329.297 10.5469C329.557 10.1562 329.87 9.84375 330.234 9.60938C330.625 9.34896 331.042 9.14062 331.484 8.98438C331.927 8.82812 332.409 8.69792 332.93 8.59375C333.451 8.48958 333.997 8.3724 334.57 8.24219C335.612 7.90365 336.536 7.64323 337.344 7.46094C338.177 7.27865 338.984 7.13542 339.766 7.03125C340.573 6.90104 341.406 6.78385 342.266 6.67969C343.125 6.57552 344.102 6.41927 345.195 6.21094C345.43 6.44531 345.651 6.5625 345.859 6.5625C345.964 6.32812 346.081 6.26302 346.211 6.36719C346.367 6.44531 346.432 6.36719 346.406 6.13281C346.667 6.57552 346.992 6.95312 347.383 7.26562C347.799 7.55208 348.255 7.79948 348.75 8.00781Z" fill="white"/>
</svg>
