<svg width="108" height="111" viewBox="0 0 108 111" fill="none" xmlns="http://www.w3.org/2000/svg">
<path d="M96.8904 90.4093L55.52 88.6299C54.0881 88.5683 53.0582 89.9884 53.5614 91.3303L56.6365 99.5306C56.8645 100.139 57.3734 100.598 58.0014 100.763L94.7296 110.404C95.9205 110.717 97.1084 109.889 97.2279 108.664L98.795 92.6016C98.9064 91.4598 98.0365 90.4586 96.8904 90.4093Z" stroke="black"/>
<path d="M100.669 79.1849L106.842 12.6986C106.933 11.72 106.3 10.8204 105.348 10.5763L68.7034 1.18037C68.249 1.06384 67.7681 1.11078 67.3447 1.31297L2.43065 32.3167C1.59258 32.717 1.14033 33.6415 1.3388 34.5488L11.156 79.4274C11.3568 80.3456 12.1699 81 13.1098 81H21.4124C22.5506 81 23.4593 80.0515 23.4106 78.9144L22.085 47.9826C22.0386 46.9016 22.9025 46 23.9844 46C24.8711 46 25.6401 46.6131 25.8377 47.4775L33.1447 79.4456C33.3526 80.3551 34.1616 81 35.0944 81H44.5C45.6046 81 46.5 80.1046 46.5 79V39.6041C46.5 38.7182 47.2182 38 48.1041 38C48.9044 38 49.5823 38.5899 49.6929 39.3825L55.2595 79.2764C55.3974 80.2646 56.2425 81 57.2403 81H69.5947C70.6616 81 71.5406 80.1626 71.5924 79.097L73.9143 31.2649C73.9623 30.2766 74.7775 29.5 75.767 29.5C76.7425 29.5 77.5514 30.2557 77.6175 31.2291L80.8733 79.1356C80.9446 80.1851 81.8168 81 82.8687 81H98.6771C99.71 81 100.573 80.2134 100.669 79.1849Z" stroke="black"/>
</svg>
